HIERARCHY
ROOT SpineBase
{
  OFFSET 0.000000 0.000000 0.000000
  CHANNELS 6 Xposition Yposition Zposition Zrotation Xrotation Yrotation
  JOINT SpineMid
  {
    OFFSET 0.000000 30.216419 0.000000
    CHANNELS 3 Zrotation Xrotation Yrotation
    JOINT SpineShoulder
    {
      OFFSET 0.156636 22.371857 -0.732930
      CHANNELS 3 Zrotation Xrotation Yrotation
      JOINT Neck
      {
        OFFSET 0.144766 7.384516 -0.616150
        CHANNELS 3 Zrotation Xrotation Yrotation
        JOINT Head
        {
          OFFSET 5.138184 12.093762 4.274361
          CHANNELS 3 Zrotation Xrotation Yrotation
          End Site
          {
            OFFSET 0 0 0
          }
        }
      }
      JOINT ShoulderLeft
      {
        OFFSET -7.966478 -2.731393 -15.171902
        CHANNELS 3 Zrotation Xrotation Yrotation
        JOINT ElbowLeft
        {
          OFFSET -5.826057 -24.188215 -7.877229
          CHANNELS 3 Zrotation Xrotation Yrotation
          JOINT WristLeft
          {
            OFFSET 2.686996 -23.582514 -6.382604
            CHANNELS 3 Zrotation Xrotation Yrotation
            JOINT HandLeft
            {
              OFFSET 0.797198 -7.273394 0.797882
              CHANNELS 3 Zrotation Xrotation Yrotation
              JOINT HandTipLeft
              {
                OFFSET 3.045204 -6.823568 1.088323
                CHANNELS 3 Zrotation Xrotation Yrotation
                End Site
                {
                  OFFSET 0 0 0
                }
              }
              JOINT ThumbLeft
              {
                OFFSET 4.530647 2.610113 3.008378
                CHANNELS 3 Zrotation Xrotation Yrotation
                End Site
                {
                  OFFSET 0 0 0
                }
              }
            }
          }
        }
      }
      JOINT ShoulderRight
      {
        OFFSET 9.187724 -6.309776 14.366650
        CHANNELS 3 Zrotation Xrotation Yrotation
        JOINT ElbowRight
        {
          OFFSET 7.384180 -21.488278 3.681057
          CHANNELS 3 Zrotation Xrotation Yrotation
          JOINT WristRight
          {
            OFFSET 11.882096 24.917506 -13.276176
            CHANNELS 3 Zrotation Xrotation Yrotation
            JOINT HandRight
            {
              OFFSET 4.409664 6.154355 -4.085688
              CHANNELS 3 Zrotation Xrotation Yrotation
              JOINT HandTipRight
              {
                OFFSET 2.630728 5.705287 -6.058797
                CHANNELS 3 Zrotation Xrotation Yrotation
                End Site
                {
                  OFFSET 0 0 0
                }
              }
              JOINT ThumbRight
              {
                OFFSET 4.863633 -1.724628 -3.429342
                CHANNELS 3 Zrotation Xrotation Yrotation
                End Site
                {
                  OFFSET 0 0 0
                }
              }
            }
          }
        }
      }
    }
  }
  JOINT HipLeft
  {
    OFFSET -2.523155 1.847364 -10.196450
    CHANNELS 3 Zrotation Xrotation Yrotation
    JOINT KneeLeft
    {
      OFFSET -11.008038 -38.333018 -0.181949
      CHANNELS 3 Zrotation Xrotation Yrotation
      JOINT AnkleLeft
      {
        OFFSET -11.059405 -37.956663 9.415687
        CHANNELS 3 Zrotation Xrotation Yrotation
        JOINT FootLeft
        {
          OFFSET 2.041628 -6.902539 -2.916193
          CHANNELS 3 Zrotation Xrotation Yrotation
          End Site
          {
            OFFSET 0 0 0
          }
        }
      }
    }
  }
  JOINT HipRight
  {
    OFFSET 4.431532 -0.401134 3.338786
    CHANNELS 3 Zrotation Xrotation Yrotation
    JOINT KneeRight
    {
      OFFSET -2.115574 -39.060521 6.483571
      CHANNELS 3 Zrotation Xrotation Yrotation
      JOINT AnkleRight
      {
        OFFSET -4.667292 -35.949205 11.597409
        CHANNELS 3 Zrotation Xrotation Yrotation
        JOINT FootRight
        {
          OFFSET 3.585006 -7.157827 -1.625630
          CHANNELS 3 Zrotation Xrotation Yrotation
          End Site
          {
            OFFSET 0 0 0
          }
        }
      }
    }
  }
}
MOTION
Frames: 5
Frame Time: 0.033333
-86.287076 82.490255 325.076041 -0.559671 -4.068175 -57.569004 -0.178490 -0.048599 57.559334 0.097798 0.551610 0.011269 0.975181 2.594318 0.152774 0.000000 0.000000 0.000000 0.284767 2.584991 0.279208 7.593190 0.286518 -2.382841 -2.008393 -4.201518 2.266954 -9.109884 7.115378 1.067254 0.000000 0.000000 0.000000 0.000000 0.000000 0.000000 -16.972417 -7.764528 -7.882923 -106.386279 -34.712339 -59.036535 2.850798 23.346074 9.994143 61.452106 -42.184173 -6.324783 0.000000 0.000000 0.000000 0.000000 0.000000 0.000000 -7.953075 3.830671 56.557975 2.811875 -3.428687 1.421209 24.517501 17.557971 -8.065687 0.000000 0.000000 0.000000 -3.835497 7.355102 58.115010 -1.652459 -0.913047 -0.110575 23.397400 31.631151 3.674684 0.000000 0.000000 0.000000
-85.806265 82.586462 325.975135 -0.520070 -4.173589 -55.761698 -0.126340 -0.079544 55.755220 0.085808 0.514973 0.015090 1.226843 1.371059 0.651903 0.000000 0.000000 0.000000 -1.235495 2.307434 0.951297 9.814155 1.817186 -3.196246 3.813062 -6.403252 3.363880 -14.049329 10.004249 1.771855 0.000000 0.000000 0.000000 0.000000 0.000000 0.000000 -16.583732 -7.361767 -7.624062 -101.850881 -45.704846 -60.058535 -7.296608 19.740949 11.779288 52.749390 -35.437134 -14.196654 0.000000 0.000000 0.000000 0.000000 0.000000 0.000000 -8.918636 4.652910 54.537372 2.881610 -4.368361 1.713360 23.368335 16.844696 -7.397404 0.000000 0.000000 0.000000 -5.096332 8.460059 56.355366 -1.332949 -1.976698 0.023343 21.116219 32.510081 5.108248 0.000000 0.000000 0.000000
-85.338225 82.697624 326.822898 -0.611406 -4.199618 -53.720330 -0.086514 -0.159887 53.707938 0.036653 0.470257 0.008732 1.461932 -0.032418 1.319663 0.000000 0.000000 0.000000 -2.520447 2.217732 1.567292 12.811282 3.066489 -4.162750 14.340019 -7.815806 6.027469 -24.444001 12.890181 2.257811 0.000000 0.000000 0.000000 0.000000 0.000000 0.000000 -15.545653 -6.587649 -7.060297 -95.619512 -53.886861 -57.981084 -6.821466 8.259254 8.957939 32.706743 -15.390401 -25.371336 0.000000 0.000000 0.000000 0.000000 0.000000 0.000000 -9.268992 5.779526 52.346450 2.618192 -4.994955 1.895172 25.981907 17.379505 -8.464782 0.000000 0.000000 0.000000 -6.384472 9.697769 54.366105 -0.765888 -3.425775 0.282631 21.832375 35.768867 5.601108 0.000000 0.000000 0.000000
-84.893237 82.796466 327.677948 -0.653504 -4.259259 -51.214780 -0.116487 -0.125176 51.199534 0.080042 0.448882 0.009607 1.458839 -2.223036 2.308742 0.000000 0.000000 0.000000 -4.313166 1.402492 2.407136 18.344246 4.830807 -6.230444 22.392631 -6.872351 9.274750 -31.792088 14.194062 2.133170 0.000000 0.000000 0.000000 0.000000 0.000000 0.000000 -13.659083 -4.256211 -5.524926 -92.721026 -61.649634 -58.549857 11.166880 -12.213876 6.420203 7.088081 13.737144 -27.799763 0.000000 0.000000 0.000000 0.000000 0.000000 0.000000 -9.705113 7.352806 49.636319 2.296388 -6.145902 2.262351 20.235467 20.611944 -5.219437 0.000000 0.000000 0.000000 -7.369519 11.015535 51.935135 -0.679439 -5.003292 0.406602 19.245274 36.225755 7.058233 0.000000 0.000000 0.000000
-84.532245 82.886334 328.469452 -0.592415 -4.307715 -48.225895 -0.079032 -0.000488 48.214544 0.142304 0.425046 0.020946 1.438855 -4.863478 3.427082 0.000000 0.000000 0.000000 -6.367736 0.250335 3.281662 25.461364 6.544051 -9.126214 28.416173 -6.618005 13.068782 -34.051725 16.914447 2.193714 0.000000 0.000000 0.000000 0.000000 0.000000 0.000000 -11.233787 -0.519836 -3.318138 -96.443338 -69.959281 -64.832100 46.738041 -23.001861 10.507428 -31.741471 33.524294 -14.439434 0.000000 0.000000 0.000000 0.000000 0.000000 0.000000 -9.979778 9.265487 46.406642 1.204645 -7.688693 2.497875 13.321118 21.545256 -1.104278 0.000000 0.000000 0.000000 -7.707263 12.184687 49.005458 -1.081049 -6.235651 0.328729 20.778166 40.697875 7.712811 0.000000 0.000000 0.000000
